<mxfile host="app.diagrams.net" modified="2024-05-28T09:39:29.935Z" agent="Mozilla/5.0 (Macintosh; Intel Mac OS X 10_15_7) AppleWebKit/605.1.15 (KHTML, like Gecko) Version/17.4.1 Safari/605.1.15" etag="oupl5Fj32CaHp2phlk3J" version="24.4.9" type="device">
  <diagram name="Page-1" id="RzMkrJ76uJ5Bmg74_iA5">
    <mxGraphModel dx="2901" dy="1162" grid="1" gridSize="10" guides="1" tooltips="1" connect="1" arrows="1" fold="1" page="1" pageScale="1" pageWidth="827" pageHeight="1169" math="0" shadow="0">
      <root>
        <mxCell id="0" />
        <mxCell id="1" parent="0" />
        <mxCell id="IcJFDWdwG0e-xd4-nDiQ-4" style="rounded=0;orthogonalLoop=1;jettySize=auto;html=1;exitX=0.5;exitY=0;exitDx=0;exitDy=0;entryX=0.5;entryY=1;entryDx=0;entryDy=0;" parent="1" source="IcJFDWdwG0e-xd4-nDiQ-2" target="IcJFDWdwG0e-xd4-nDiQ-3" edge="1">
          <mxGeometry relative="1" as="geometry" />
        </mxCell>
        <mxCell id="IcJFDWdwG0e-xd4-nDiQ-6" style="rounded=0;orthogonalLoop=1;jettySize=auto;html=1;exitX=0.75;exitY=0;exitDx=0;exitDy=0;entryX=0.5;entryY=1;entryDx=0;entryDy=0;" parent="1" source="IcJFDWdwG0e-xd4-nDiQ-2" target="IcJFDWdwG0e-xd4-nDiQ-5" edge="1">
          <mxGeometry relative="1" as="geometry" />
        </mxCell>
        <mxCell id="IcJFDWdwG0e-xd4-nDiQ-8" style="rounded=0;orthogonalLoop=1;jettySize=auto;html=1;exitX=1;exitY=0.5;exitDx=0;exitDy=0;entryX=0;entryY=0.5;entryDx=0;entryDy=0;" parent="1" source="IcJFDWdwG0e-xd4-nDiQ-2" target="IcJFDWdwG0e-xd4-nDiQ-7" edge="1">
          <mxGeometry relative="1" as="geometry" />
        </mxCell>
        <mxCell id="IcJFDWdwG0e-xd4-nDiQ-2" value="&lt;font style=&quot;font-size: 21px;&quot;&gt;BE Orchestrator&lt;/font&gt;" style="rounded=1;whiteSpace=wrap;html=1;" parent="1" vertex="1">
          <mxGeometry x="180" y="390" width="220" height="60" as="geometry" />
        </mxCell>
        <mxCell id="IcJFDWdwG0e-xd4-nDiQ-13" style="rounded=0;orthogonalLoop=1;jettySize=auto;html=1;exitX=0;exitY=0;exitDx=0;exitDy=0;" parent="1" source="IcJFDWdwG0e-xd4-nDiQ-3" target="IcJFDWdwG0e-xd4-nDiQ-9" edge="1">
          <mxGeometry relative="1" as="geometry" />
        </mxCell>
        <mxCell id="IcJFDWdwG0e-xd4-nDiQ-3" value="&lt;font style=&quot;font-size: 21px;&quot;&gt;Validation&lt;/font&gt;" style="rounded=1;whiteSpace=wrap;html=1;" parent="1" vertex="1">
          <mxGeometry x="180" y="170" width="220" height="60" as="geometry" />
        </mxCell>
        <mxCell id="IcJFDWdwG0e-xd4-nDiQ-18" style="edgeStyle=orthogonalEdgeStyle;rounded=0;orthogonalLoop=1;jettySize=auto;html=1;exitX=1;exitY=0.5;exitDx=0;exitDy=0;entryX=0;entryY=0.5;entryDx=0;entryDy=0;" parent="1" source="IcJFDWdwG0e-xd4-nDiQ-5" target="IcJFDWdwG0e-xd4-nDiQ-16" edge="1">
          <mxGeometry relative="1" as="geometry" />
        </mxCell>
        <mxCell id="IcJFDWdwG0e-xd4-nDiQ-5" value="&lt;span style=&quot;font-size: 21px;&quot;&gt;reCAPTCHA&lt;/span&gt;&lt;br&gt;&lt;div&gt;&lt;span style=&quot;font-size: 21px;&quot;&gt;(fraud/abuse protection)&lt;/span&gt;&lt;/div&gt;" style="rounded=1;whiteSpace=wrap;html=1;" parent="1" vertex="1">
          <mxGeometry x="570" y="220" width="260" height="60" as="geometry" />
        </mxCell>
        <mxCell id="IcJFDWdwG0e-xd4-nDiQ-20" style="edgeStyle=orthogonalEdgeStyle;rounded=0;orthogonalLoop=1;jettySize=auto;html=1;exitX=1;exitY=0.5;exitDx=0;exitDy=0;entryX=0;entryY=0.5;entryDx=0;entryDy=0;" parent="1" source="IcJFDWdwG0e-xd4-nDiQ-7" target="IcJFDWdwG0e-xd4-nDiQ-19" edge="1">
          <mxGeometry relative="1" as="geometry" />
        </mxCell>
        <mxCell id="IcJFDWdwG0e-xd4-nDiQ-7" value="&lt;span style=&quot;font-size: 21px;&quot;&gt;Review&lt;/span&gt;" style="rounded=1;whiteSpace=wrap;html=1;" parent="1" vertex="1">
          <mxGeometry x="570" y="470" width="220" height="60" as="geometry" />
        </mxCell>
        <mxCell id="IcJFDWdwG0e-xd4-nDiQ-9" value="&lt;font style=&quot;font-size: 21px;&quot;&gt;1&lt;/font&gt;" style="ellipse;whiteSpace=wrap;html=1;aspect=fixed;" parent="1" vertex="1">
          <mxGeometry x="60" y="19.1" width="35" height="35" as="geometry" />
        </mxCell>
        <mxCell id="IcJFDWdwG0e-xd4-nDiQ-16" value="&lt;span style=&quot;font-size: 21px;&quot;&gt;2&lt;/span&gt;" style="ellipse;whiteSpace=wrap;html=1;aspect=fixed;" parent="1" vertex="1">
          <mxGeometry x="910" y="232.5" width="35" height="35" as="geometry" />
        </mxCell>
        <mxCell id="IcJFDWdwG0e-xd4-nDiQ-19" value="&lt;span style=&quot;font-size: 21px;&quot;&gt;3&lt;/span&gt;" style="ellipse;whiteSpace=wrap;html=1;aspect=fixed;" parent="1" vertex="1">
          <mxGeometry x="910" y="482.5" width="35" height="35" as="geometry" />
        </mxCell>
        <mxCell id="IcJFDWdwG0e-xd4-nDiQ-24" value="" style="shape=image;verticalLabelPosition=bottom;labelBackgroundColor=default;verticalAlign=top;aspect=fixed;imageAspect=0;image=data:image/png,iVBORw0KGgoAAAANSUhEUgAABCEAAABRCAYAAADsH7wsAAAAAXNSR0IArs4c6QAAAERlWElmTU0AKgAAAAgAAYdpAAQAAAABAAAAGgAAAAAAA6ABAAMAAAABAAEAAKACAAQAAAABAAAEIaADAAQAAAABAAAAUQAAAADkOrfJAAAq60lEQVR4Ae2dBZgjN/K3tWFmZmamCzMzMzMnF7j8w3RhZrq7MDNfGC/MdGHcMDNHX711UX9tb7fHs+vxjqd/eh7b7W6pJL1tya1SqdQvhBDtpSACIiACIiACIiACIiACIiACIiACIiACPUpgKKTHKD1Ej1KW8I4j0K9fP7WLjrtrKrAIiEA7CaifbCdt5SUCnUVA/UNn3S+VVgTaRYC+gTBEuzJUPiIgAiIgAiIgAiIgAiIgAiIgAiIgAtUmICVEte+/ai8CIiACIiACIiACIiACIiACIiACbSMgJUTbUCsjERABERABERABERABERABERABEag2ASkhqn3/VXsREAEREAEREAEREAEREAEREAERaBsBKSHahloZiYAIiIAIiIAIiIAIiIAIiIAIiEC1CUgJUe37r9qLgAiIgAiIgAiIgAiIgAiIgAiIQNsISAnRNtTKSAREQAREQAREQAREQAREQAREQASqTUBKiGrff9VeBERABERABERABERABERABERABNpGQEqItqFWRiIgAiIgAiIgAiIgAiIgAiIgAiJQbQJSQlT7/qv2IiACIiACIiACIiACIiACIiACItA2AlJCtA21MhIBERABERABERABERABERABERCBahOQEqLa91+1FwEREAEREAEREAEREAEREAEREIG2EZASom2olZEIiIAIiIAIiIAIiIAIiIAIiIAIVJuAlBDVvv+qvQiIgAiIgAiIgAiIgAiIgAiIgAi0jYCUEG1DrYxEQAREQAREQAREQAREQAREQAREoNoEhqp29f9X+48//jjEGMN4443XUTi++eabMMooo3RUmVVYEeg0Ar/++mv47bffCos9zDDDhCGHHLLwWjMnkYv84YcfvpnoTcf55ZdfvE8bdthhm06jiCIgAiIgAiIgAiIgAiLQDgKVtYT47rvvwp577hlmnXXWMP744/trlllmCXvssUf49ttv28G+W3l88skn4fvvv8/SXHHFFWHUUUcN5513XnZOByIgAq0nsP7664cRRhih8HXuuecOUob0N8imP2plmH322cO0007bLZH1fUy3EiuyCIhAryCw8847h4MPPrhXlKWoEE8//XRYaaWVwgcffFB0WedEQARaROCrr74KF1xwQdhoo43CPPPME3bffffw73//2ycoWpRF28SceuqpYZdddmlbfsqoPQQqq4TYdNNNw7HHHhvGGGOMcMIJJ4STTjopjD322OG4444Lm2yySa9qpD/88EMYd9xxw//93/9lv4qZZpoprLPOOq5EyU7qQAREoOUEsJIiHHXUUeHkk0+ueS2wwAItz68VAukbNthgg6ZFFfUxTSdWRBEQgV5D4L777guPPPJI28qzzTbbBJ6nmg0oO2+66aamJ3u6K7/ZciieCPRlAlhDLrfccmHLLbcMH330UVhwwQXD7bff7ueOOOKIpqv+888/h6mnnjpcfvnlTafpKuLAyER5ec8993Ql2q8PjPymBCtSywlUcjnG8ccfH66++uqw7rrrhksvvTSDygwCGsOLLrrIlRHMUhLef/99/5xwwgnDp59+Gt54440w99xzF5phP//88+H3338PM844Yxh66KE9HW8//vija/4nmGCCgAn3yy+/7HFSBAY6zz77rP8xo2AYffTR/RKDA/IjoNXkeKyxxgqTTz55OOyww9yCwy/m3l566aXwxx9/BOTkQyoDlh/MvlIGlDDjjDNOPpofv/LKK15vyjvddNMNcF0nRKBqBLbddtvS5U/5PgKrhtdeey3MNttsoV+/fgNgev31192qCcur+pCX01Vfg8UWfQZy6pdl8eBBH0Doqt2X9TFYWhFY9vXCCy/4MX1KfV5+QW8iIAK9kkD//v3DyCOP7JaT9Ev8p4844ohZWdN14vD8wrNFvo2/++67/jzCdQL9BX3TxBNP7IMbZPLQ/84774QxxxwzjDTSSJnsdMCys+eee84HM+lc/SfPHPQ19DFpeRrWEo3kF6Wpl6vvIlBFArvttpsrI2+55RZXPCQGW2+9ddh///3DX/7yl7DEEkv46bI2zuQn7ZpnljfffNOPJ5100oCC48MPPwyMiX766Sdvo1iVDzHE/+a1Occyd64PNdT/hpmff/65j41GG2208Pbbbw8gM5Uv/8mYh7hFz0rEoxzPPPOM92/TTz+9J+VcI/lFafJ56rj9BGz8W61gjS/aIDyaRn6Ain/22WfR/kSjmS5l1+aYY45ojSBuscUW0QYVTItG+7ONd999dxbnxhtvjBNNNJFf47r90ceHHnoou37DDTf4tb/97W/RBv7R/uiza2bS7fJIx4uyXXLJJX79sssuy2Sm60ceeWS0mQQ/b9rJTM5tt93m+aZ45uMimrIlu57KYBYVcZJJJvH0phCJNouRxbGHgLjwwgvX5LnoootGG/BkcapwAEMFEYDAGmus4e3h66+/LgWS7yNM+ejxbTlETR/x5ZdfRlNMZG1ryimnjKuvvrp/T+0rL6esrzEfEl4m+3P3tOaTIi6//PLRlA1Z+eaaa65of8r+vat2X9bHkNgUst4fpj6FvtEUt1k+Oqg2AfWTve/+86yy7LLLZgWzh37vL6aYYgrvL0y5GE877bSa6zYhkz2/8ExgVqLZdRtYxKOPPjr7zrMJ990UBHGqqaby49Q/nH766Vm8dMBzkE2qeDz6rLXWWsuPbRLEozz55JPRBitxuOGGi1w3i9RoylW/Via/UZqUrz4HPwH1D4PvHjDOWHXVVQcogA3soykUoykjsmtlbdwsJ2raN/fTFJDxjjvu8PM2cRvpLzhPuzVFo8tk3MG5t956K8tjtdVWi2Y5Gs2ioVBmFvHPgwMOOMD7A+QwtmJcMvPMM2fRGAcxVqIuxFlsscWiKRgayi9LkwnVQdsIcM/+fFVrsGWzg9FmAeKcc85ZChsFBD9us2jwOAwMgDXffPNFGiXKB7NG8IG8zXpGm710JQLp7rrrrnjVVVfFySabzK/bDIHLSAMB5JiGMhucoAixWQdvnMixGUdXJNCBEOgwHnzwQc9/7bXXjk899ZQrT+qVEKb5c+WGWWB4Ge69995o1hpe1xdffHGAMuy3337x/vvvzwZY5Es45phjPK/DDz/cHzJsbal/P+OMM/x6Vd64TwoiAIFmlRD8Zhj8m7+WeO2110ZzChnXXHPNDOJ6663nSkxb/hWfeOKJaJYV3rZIl1dC8L2sr0GYrev0dAceeKD3F6nNbrbZZlleRUoI5Ba1+7I+hv6PP3iUJWZd5S+b/Yw2O5Llo4NqE+A3pdC7CBQpIRgo/POf/4zvvfdeXGWVVbxNp1KjpEDhiXKRSYitttoqokh99dVXPUrZAAUlBP3W0ksv7QMElKwMAvKB5y2ehcya0idlHn/88WyiJCkhFllkkcgzls2e+rMNz0MbbrihiymT3yhNPn8dD14C6h8GD3+zbvJnBFtCWlgAxirzzjtvdq2sjTMmoZ1zH82CPNLGadNJOcFEi1ki+BiI5wTGHATGQKR5K6eEQCGCEoL0RTKzwtjBww8/7H2S+eOKZokRzznnHJeXlBDUjz6K8QmByRLyu/7660vlN0rjQvTWVgLcL16VW46BSREOHk3DbvUvDlx77LHH3PwoxcOE6LrrrsuWLtgDf7CH/2BKgWBa+YCpkc0QhMUXX9yFsmxir732CnfeeWewWcosIxvch7333jv7btp/XxrCkgfMJHmtvPLK4cwzz3RTR3bswMkcgWUT6TgT8OcBZfviiy983VYqw9lnn+3xWXJy6KGHZklsVsOdcnIi5c9aK5aQmCWIxzOtoi/1oKxLLbWUm15mAnQgAhUkYDOJmbkh1aftYMaYAm3VlJCZKTOmjmkNo/XuwRSRbv646667ehJ78A6YE6c4SU6jvmahhRYK//rXvwK+KA466CBPQrs1RWW48MILgykLQ9mOGGXtfscdd8z6lXwfw7ISTK9ZD0r/xNIS1ptjZqkgAiLQOQRYarr55pt7gW0wEOxh3ZdU4AeLsN122/nyVI5NCRHsoT88+uijDZdPEJelF6bg8KVf9Fv1wZQebhqN/y1TrPpllsOyFDYF+kz6FhsIuV8unj3SEtQy+Y3SJLn6FIGqEmCpNYGlE0XBFIPuH6LoWv4c7TK1a5ZwpeMU56yzzsr80plVp/vZY/lno9CVTNLyPMMzE74rzGrb/VrgUNMUoy6aZR48m6SlHuTNLmX0G2XyG6VpVF5d61kClVNC8AMl8AMvC+laiks8/CjkfSew3pvAWqnU4G1209c9cj41FtME8jULpi3MjjlgneWSSy7pcm6++WZXPLAGi5DfDcNPNHgzawe/mneURxn5E0/ruVPyfMeETwgCShQCXqt5SKBMZnkR2BmAwVSehUfUmwhUjMDGG2/siodUbR6+8wE/Lvm11LSt1K5Yd017nn/++bMktCnWOtYrIRr1NfQfNhvhSohMkB2gnGBgQV/E2syi0KjdF8Wn71hmmWUCa0rNcizY7KQ7u7QZlKLoOicCItBLCeT7quRvgbXRKeQHFzbb6A/0+GIY1ICSlYDCNYV8XpxDqYnne/xR4ECPNGl9d0pT/zkwaepl6LsI9FUCTGYS0qRifT3x6ZLi1F/rzvfkN4o0jDcYOyUFYnfk1MelD8D3HQqIFPJ5cc6WefnEC/4f6DfwxcerURiYNI3k6dqgE6icEgKnSzxcozwoC1xD68fMZ1lADsHMitxZC8dYI+QDzittWUf+1ADHOF4xc+9gSzzcOoNBCTK7G5hxIK/0gJHS05Dzs7XpfPqsVy6gxLClHK7RxEEnWxBSJvM3EZjpVRCBqhLA8iCvZOiKQ75tJYeTWE90N+T7Gto5gXadD+k7bb1MCZGPny9b/nz9MQ58sfhiK2C298K6ix2EmFlVEAER6HsEcCLJYIKZxUENaabS/NgUijLTbFfMMnhg8oNnDfOb5YOKwgR2cmDSlMnSeRHoiwSmmWYanzD573//O0D1aNsM8s3HwgDXBuVEauOt6jeSvFSm/DMLu//Ykqyw4oorhn333dctPrDYbBQGJk0jebrWGgJDtEZM50jhh4z3ZRon2rP6wPZR7C5BnPyPvj5eatzMLqKtw5TwgQce8GUcLOVIL5ZtNAoM9FFAsJcvMw889GOB0N3ADCnmSbaGsiYpMwZpSUnNhQZfmK295pprXHmB6TherVlGoiACIjBwBJIVQrJY6o6UfF+TLKnq+670vbttvatyoDTBkzaK2VtvvdX7OvbqThYeXaXXdREQgd5PwJzuZoVkiSkD/bQrFpMbLM1KgR0s8oFBR5kJdhoYsL1eCky8pMAzE5afmF2bw8pga8xrrM2IVy+/mTRJvj5FoIoEaDNYLDKJWG+NzRIKJjrZsjOFRm08KRWK2ni+LzB/L748gmeQNPmat+bOx20kkzKhRKFPYvl8CliApsDSUyaTmRwxx/n+XJIfrxXJ7ypNkq3P9hKonBICvOYgzv80d9hhhwFo77TTTm42TZx8YDDPKwWUDAT+qFFY8KdtHmPTZV+OwQwiA/hGgXVOzBaw7CGFNGuavmNKSaNq9OBPGQjISwHlBh0H5pXNBhq1Oc7z6Fg+mGMb32o0mVU2K0fxREAE/j8Blljwp4n/mBSY/WN7qfrQqK/B4oFts+hr6HNSYMkEviDSQ3863+xnUR+DmeMhhxziZeYP3jzu+xbGyEzLzZqVr3giIAK9l4DtluFLIlA0MvGA6TNLvAjMmNoOOu7v5qSTTvLr+ZowCcNSCnze4JcqH1iHjXXDySef7P6qrrzyyrD99ttnUdLSDPoTnnvwHWGOfbPrHNTLbyZNjQB9EYEKEkABgWU01gK0P/yo4OMNS6PlllvO/cAkLI3aOM8GjAWYIMVPTFquTlqWqNJnnHLKKeHiiy/25ZvmMNKtmxjX0J7Jly3DGY+k0EgmcVgOjhy2E0XpaE64fWI0pWfpK9uAMjnCxA7W5FhwpVAkv6s0Ka0+20/AflPVC3iqN9S+Fedhhx0W2Q0Cb7GcW2eddWqApN0x7M80msPIiHd7+5G7J1i2y7M/XvcAjed4G8T79pmkweOsrY9yWWl3jPyWmlzYc889PU+8vFojjeYgyr9TDmtgWTlscOHbXJG3KQQG2KLTFBS+7SdbXbH9FrtZsCWXdR7uuRZBRWWgfORlpuaelylmsvKY+VJkm5z89axAffyAOiuIAATS7hjsRsEWT/lX2pKK9p62xEzUNtpoI2876bspOP27PeS7N2e21eR3xqt+d4yyvgZZ9AGkwYM8O3HYH7x/p62mULQ7Rr7vqW/3pKvvY8y6IpryM5qCM9qDhnvEnmGGGaI92NRsB5ry1Gf1CKif7H333JZjRRtkZAVje0wzWc6+0w9w3/B8T7BBfWT7PJt99PNsh8fuPimYzxrfvcIUkb6r2D777OPxPvzwQ4+CB3z6CK4X7aLFdpvs2kWeyLYlXX7Mc4wpUqM5zPRnJZ6X6BPpb9lGPYV6+c2kSWn1OXgJqH8YvPzZHpcduthtj3vBf7wpAX2Xi3zJumrjZqntOwIigy060+4Y7PDFlr+cZ/zEM0MKjKnMj57v0Md4y5QhvjtGul4vM51Pn+YnxvOkXzCFqPcLaXcMW3aa9Sn0X4yf6OfYKSyFevnNpElp9dnzBPjN/Pmq5mDLzISimRl7w+FBmxd/fGxhx7ab+cAAg4dv9tU182T/w7QlCzVKAvatNu2db8sHWJv59AFCknPjjTc6cAYN+UCjZbsc0qDY4OEhDfzNFCmLyr68aZ9v9uw2J5YDyOPP3nbG8DIgi22sUCSkUFQG8iBvm/H0aGzXxxZeNPxUJvYQ53yVAnVXEAEIpH3t+U3Uv/7xj384JLb8pY/IB5sl8HaUztlyKd+3m6072V5qhRVWyJSOqc9ppq9BHoMKW+Lh5UH5yba/PJynwFZZqTzNtHvS1fcxnGPbPhSbqd7kxfbACiIAAfWTnf874CE+KTCZzMj3I/na8cw0KKHRMwT9H/1jd8LApOmOfMUddALqHwadYSskmNWlKw+6ktVsG09KCLOAisg2B5iFopmkrd+2tzBiyUmzbsgmaIqiNOqviuJzbmDSlMnS+YEnkJ4p2SoCKfZR3ZDWKpU5ncMzPE5SWFqBR2n8Low55piFwFj+wCvtOlEYqeCkNQw31y7bXq8gSemptHar3kllaYKCC8jAtBLT7+RcqiBanz2F+XnV20WfvbmDuWL4biGkdZP54nSnryEd6yQxM+zJQDvAmzbmkT2dV0/WQ7JbT0D9ZOuZtlsibRpHszab2O6slV8fJ6D+oW/eYJaDLr300r4MKy0F75s1Va16igB9A6Fyu2MUAS1TPhTFZa1RmQKC+Az8B2bw30hmUTkanRuY/OvlIYP1nAoiIAKtJVCkfCjKoau+hjTtUArwZ5HfnriorDonAiLQmQTM+kr/9Z1561RqERgsBBgz2ZJP30VwsBRAmfYZAlJC9JlbqYqIgAiIgAiIgAiIQPMEcBynIAIiIALNErCl64HdMBREYFAJaDlGEwT79+/vpvm2HrqJ2IrSFwjIjLAv3MXOq4P6ms67Z1UusfrJKt991V0EGhNQ/9CYj66KQFUJ0DcQpISo6i9A9W5IQH+eDfHoogiIgAgE9ZP6EYiACJQRUP9QRkbnRaDaBJISYohqY1DtRUAEREAEREAEREAEREAEREAEREAE2kVASoh2kVY+IiACIiACIiACIiACIiACIiACIlBxAlJCVPwHoOqLgAiIgAiIgAiIgAiIgAiIgAiIQLsISAnRLtLKRwREQAREQAREQAREQAREQAREQAQqTkBKiIr/AFR9ERABERABERABERABERABERABEWgXASkh2kVa+YiACIiACIiACIiACIiACIiACIhAxQlICVHxH4CqLwIiIAIiIAIiIAIiIAIiIAIiIALtIiAlRLtIKx8REAEREAEREAEREAEREAEREAERqDgBKSEq/gNQ9UVABERABERABERABERABERABESgXQSkhGgXaeUjAiIgAiIgAiIgAiIgAiIgAiIgAhUnICVExX8Aqr4IiIAIiIAIiIAIiIAIiIAIiIAItIuAlBDtIq18REAEREAEREAEREAEREAEREAERKDiBKSEqPgPQNUXAREQAREQAREQAREQAREQAREQgXYR6GcZxXZlpnxEQAREQAREQAREQAREQAREQAREQASqS2Aoqh6j9BDV/Qmo5kUE+vXrp3ZRBEbnREAEROBPAuon9VMQAREoI6D+oYyMzotAtQnQNxC0HKPavwPVXgREQAREQAREQAREQAREQAREQATaRkBKiLahVkYiIAIiIAIiIAIiIAIiIAIiIAIiUG0CUkJU+/6r9iIgAiIgAiIgAiIgAiIgAiIgAiLQNgJSQrQNtTISAREQAREQAREQAREQAREQAREQgWoTkBKi2vdftRcBERABERABERABERABERABERCBthGQEqJtqJWRCIiACIiACIiACIiACIiACIiACFSbgJQQ1b7/qr0IiIAIiIAIiIAIiIAIiIAIiIAItI3AUG3LqWIZ/frrr+G3337Laj300EOHoYYaEPfPP/8cYoxhuOGGy+Kmg19++SX8/vvvYZhhhgkcl4Vhhx02DDGE9EllfHReBERABERABERABERABERABESgdxDQyLWH7sP6668fRhhhhOw14ogjhnnnnTdcccUVNTlybtxxx605l74sscQSYaSRRgrHHXdcJicvMx3ffPPNKYk+RaBtBM4555yw3XbbtTy/P/74I9B+LrnkkpbLblZgT9WtLP+nn346rLTSSuGDDz4oi9Ky8/m6ff7552HTTTcNq6++esvkdyXo1FNPDbvssktX0Xrk+vPPP++c33rrrVL5+fKtueaazuezzz4rja8LItBpBHbeeWdvB/Q5vLbddttwzTXXtKQavaH/bklFJEQEREAERKBHCUgJ0UN4sW4goEA444wzwhZbbBFee+21sN5664Urr7wyyzXFy07UHXB9ySWXDCeeeKK/VlllFY+x5ZZbZudmnnnmulT6KgI9T4Dfdr9+/VqeEQ+xDMa/+OKLlstuVmBP1a0s/08++STcdNNN4dtvvy2L0q3z22yzjQ+eixLl63b44YeHq666yvuYorg9cQ6Fyz333NMS0ViSTT311OHyyy9vSt7333/vv60ffvihNH6+fIsuuqjzOeyww0rj64IIdBqB++67L/A7n2CCCcIYY4wRrrvuurDGGmuEI444YpCr0hv670GuhASIgAiIgAj0OAEpIXoYMcoCZhlOP/30gMUCf9Dnnntut3KdY445fOaQ2UMeigkoI/jOa7LJJvNzehOBdhFgRvmVV14Ja621lmfZv3//8M033/jv+80336wpxuuvvx5efvllv5YuvPPOOx4/fefzo48+Csw4s2zpoosuChtttFH+sh8XyXr33XfD119/ncX96quvAvJpaymk8qXvKDkeeughj5fOpc+iuiEfec8+++wA5U6yuV5fd76/8cYbSXTNJ8u1nnrqqULFA3XKKyQYNNfXifRPPvlkeO+992rkUjcUnrxI891332XX6+tG2eaff/6w/fbb+5Iv4iOXNAxS8gxZEsZ1lohxrz/99NNMLueID/uiwPlnnnmmRh7xfvrpJ5eZX7qGdQZKmXwoqivlefvttwO/CThTtq4CfSkzvigu8qGsfDvuuGOYZ555PI98fB2LQKcTYPLirLPOCueff354//33w6STTlr4bFLU59LW6APyoZ39dz5fHYuACIiACHQuAZtsV2g1AZtVwBQi2uAlE20P9HHssceONvOQnZt11lnjKKOMkn3PHyy44ILRZprzp+IJJ5zgcm+88caa8/rSWgLcO4VyAgcccID/lm1w6JFGG220uPbaa/s5G9T6ORsEx2mmmcZ/r/CcZZZZoj28RtKMOeaYcfPNN88y4BztYqeddvJzHO+zzz7Z9TJZRLDZvLjxxhtncSkH+ZmSwc/ZADOaz5RoyxD8+1//+ldvV+ZrxeNtsMEGkbaZQlHd1l133TjRRBN5fNIde+yxKXosqrsNiqMNdLO6Tz755PGll17K0lC20Ucf3a+b0iWaMsePTVnjcSjv0UcfncW3pSl+3RQMfs4Umd5vUE9eSy21VNbXTDXVVH4uXTMFaCanvm4rr7xy5EW44447PJ2ZasfEhv7queeeq7m+9dZbR/Nx430RFyjLqKOO6mmHHHJIl2cKAk/DG3lSR8oDw4UXXjjaAMivX3311X7elkf4d95WW221uMACC2Tfy+pqSg9Pm+rJpylGsnRFB3fddZenIW0KjcpHnOWXXz6usMIKKbo+cwRgrtB5BOiLl1122ZqC2xK4mmeTsj53cPffNYXWl15NQP1Dr749KpwIDDYC6blNlhBGol2BGUtmem1A0q4slY8I9AgBTPhtsBhs0JnJtwFlOPjgg8Nll13m5/DrYANtn5F//PHH3Vphjz328DSkveWWW9wpK5H/85//+PILTIKLQpks4i699NLh/vvvz5Kl43vvvdfPIZsZfeJhtWCKvGAKjvDjjz+G0047zf20YKmRQlHdMPc/5phjfPZvk002CXvvvbfXK6Wprzv1wKKDWUT8D5jSxa2X7AHe60x98AWDNcbDDz/s9U+yuvp84YUXQlpuwfKCG264Idx5553hwgsv9KRYJFBXG+yHL7/8MmCNlUJ93ShPCvZv5Ie33XZbeOyxx3x21BSkvpSMC+k6XFk6Ykqk8OKLL7qlF/XBmuDWW2/113777eeyHnnkkXDooYcGUwy5pcKBBx5Yc6+STI/851v+XKO6mgI386Fx/PHHe13h3CjkZROvq/IRhyVHWHooiEBfJYBF0d133x2WW265rIplfS59/uDqv7PC6UAEREAERKDjCUgJ0cO30GY/Ay8cUmJezkNw/o++h7OXeBFoOYH0m8ZpXz7g7AxHlRNPPHH48MMPA4oHBss2Mx/mmmsud37I4JVAWsx3n3jiCf/O+XHGGScstNBC/j3/1pWsZZZZxs3yWcLw6quvho8//tgdWyYlBOufp5tuujDJJJP4TjMMKlmywBKHtAxh+umn9yzL6ka9zBoijDzyyGGrrbYK7H7z6KOPZsWsrzuKABQVU045pS+XQjnD8giWsKCM5KEf5cB8883nbBhENxvwp8BShF133dUd1uJYjmUiZtHgInBma5YM/jIrjcDOPISiulGOscYay6+nN0y0GeCzXhyHldwjFDYpnHfeea7kQEFhlgU+QDerjWDWEMEsMpy9WWp59AcffND7PNaaw586lymakvz8Z6O6ch+pHwHHvxxzrjuhmfKZNYgrkrojV3FFoLcTQDk799xze1s3izXvt1G0ErrqcwdX/93bmap8IiACIiACzRMYcM/I5tMqZhMEGGSkwDaaPIQfdNBB6ZQ+RaDjCDCbzozzYostVlP24YcfPvueLAv23XffcOSRR/p51vozmOVz8cUXd4doKB94EGbQyuxa0VazXcli4Es6lA34GJhxxhndV8WGG27oygIsI1BUEFB0UCYcMl566aVunYB1BkoSQlnd0mCXOKylZjYQpUIK+bpjHUCYdtpp02VXgvCFmX0cwRHwT5BCXn46V/aJDPjnLaqacU6brxtKDJQWKG1OOumkmqxQJqQw22yzuRIh79eivq4TTjih7+KT0qDQufjii11RgtIFJQcKiBTy8tO5ss+BrWuZvPrzzZQPZ8L4KOE3hNUJWyIriECnE0C5ZkuNvJ2ivLNlV279NP7447sPH+rX2/rvTmeu8otAFQngQybvjJrnnVVXXbWKKFTnOgJSQtQBafVXTNOZpWN2kkEHs4f5wJ9/3vlb/hrnuzuzl0+vYxHoCQIMZvkDYblBWUi/aR5iZ5hhhppotAFm53GuihLC/Dn4Q+8pp5xSEy99aUbWnHPOmSkhcN7KUgQsHVBM4LzR1v0ncb48AAsNZvTPPPNMH1hiuYDSoJm6pSUV+aUomXA7SJYHqdxcS+b8MEvcsKYYmID8gRkI5+vGrhLJ8WVZPShbKmNZHMqS6pbqwneUQryoa5KRrnenTxvYuqa8uvpspnyp7vCqX87RlXxdF4HeSgDrByy0CFhtTTHFFOGoo47y3btS39Ub++/eylPlEgERKCaA1ehmm22WXaTvkRIiw1HpAy3H6OHbz9KLFVdcMTAwqldAkDUzhHiiz3uwT0XCJBKP1Qoi0FsIMHPODgv1SzHqy4c1AgHlGxYTvGaaaSa3AkiDdHbWYPCP+T8z+7SRotCMLGapUTjwIi+sDcz5mm85x2B4kUUWcdFYYfCHON544wX8FpgzRrfOQEvfqG753TfY0YKHdJZ4FIVUXpZIpMDOEAQsFtLODNQ9Bfwp5MMII4xQ0yfkPdFTL/qG/A4SZ599tu++k2QwcM4voaivG0qMBx54wK0pzOllSuaf+bxYUsNAnSU1RYG6srQlv1MG9cIagnQ8bMAuv2sIfipSoJ4EfFukkM+/q7omBUG+rklOM59dlQ8ZWEFMNtlkgaUbww03XDNiFUcEOooAzybmqDLgDwYlYurDelv/3VFQVVgREAEngJUrz17pxXOFgggkAja5o9BqAkW7YxTlYTMR7q3dZmVrLtvsrXvwt8FezXntjlGDo8e+WOPoMdmdLPjvf/+77+qQ3/2A+ph5Xc1uFpxbcskloynZoi2HiLZEIZolULSBe7YTBTJIB+v8Thmkrd8doytZNqB2Ocgy56+IiOYzwc8tscQS/p23FO+QQw6J5jsimmNKj8POEI3qhlyz1IjmTDPOPvvsvhtE2qmiqO7sVsFOEPZQ77tOsGPFvPPOG+0B3+uPd3p29TBLqWj+Yry+5JF2x2BHBhsgR3M4GU888cRog18vJ3maHwfnZsrNaA4k48knn+zXkJMCu4zYwCJef/310f74S+tmStJoFime7Pbbb3c5pvj0eiKXuqWdIdJ1UzKkbLKy2ENGtAeLeMYZZ3i/ZWvLPQ47a5jSKXIP+B2wEwX1TLtjsHOJKSvipptu6nXdYost/HraHaOZuppCKZovkWhOJrPfVlbAugN4kn+qQ1flIzn1NyVXnSR9hQAsFTqPAP1P/e4YtF3uJ88ehK763MHRf3ce6WqXWP1Dte+/ai8CZQToG/586SGiDNKgnG9WCcFDNoMRm9HzP32UDGzXx6DD1l5Hcx5VUwwpIWpw9NgX/XkWozXfCT5grL/KdpNmultz2mbqI4NcfsfwtOUOPmjOR7KdJvwag/t8MMuIGnldyTKTfx9083CdwnXXXeey81tdcm2vvfbKymQWAdGcU0bSl9WNgTiDbJQC1APlwrXXXpuycaVMfd1RhKS605ZRSiSlBQnNSiLabGMmjzIh23wUuFyzzHCljS1diLbUxBU8XDcLCL/OYJqBPOfMEWjcfffd/Xx6Y8tLszxxhQCDi7K65bfoTEqGbbfdNttyE8WJORB1sek6Zc8HFC1sNUxZbMePuNtuu+Uvx1NPPTWaXwjfJhVlAX1jUkIQ0fxzRPPVEW3ZWjT/CxHlSlJCcL2rul5wwQUun/y72qIzKSHydeiqfNqik7tQHGCu0HkEaK/0T/mAYo77SXsgdNXnEmdw9N/kq9AZBNQ/dMZ9UilFoN0E6Bt49fuzk7APhVYSYEu6K6+80rf0w6N+o4AjOzzdsy0epsiY/OI/Yv/993cTyXxanMgR9+abb3anUvlrOm4dAdatW6NsncAKS8L/AK+i5UjdxdIqWfgpwDQQ52zJpL+sLGwzyu4XrJ/+4osvfNvRZv0aUF5CmQ8Hlio0ctSIX4u0ZKGofPgp6Kp/KUqXzuGXA2eemGGzNIWtPVlugx8Plk2wTKbZQFkw3y5ig4k3Sya4XhSSn420VKcoTjN1JY+ipW3I4/dXdh8alc9mhAPOONOOH0Vlq+o59ZN9/863qs+FVCtl9X3ynV9D9Q+dfw9VAxHoCQLpObHcs1xP5FohmWzJ2Wxg/SUDANaZ9+/fP+CduuxhfJdddgm8FESgUwgw8Csb/HW3Dq2SRfvCL0R3Q9rZotl0XdW7kQKCPBopILg+KAoI0rPDxrnnnhvOP/9835KTcwT8aHRHAUGaRmVB0VOmgCAt/iO6Co3kp7Rm/RJsqU36WvOJc1J2uigKZeUzKwtXDttykaJkOicCfZ5Aq/pcQLVSVp8HrwqKgAiIQB8nIEuIPn6DVb2BIyAN/sBx64upzJ9BWGeddcLWW2/d56pnfjHCDjvs4DtlMHjfcccdAwrU/Paffa7S3agQliFYUJiJ+kAprbqRVUdGVT/ZkbdNhRaBthBQ/9AWzMpEBDqOQLKEkBKi426dCtwOAvrzbAdl5SECItDJBNRPdvLdU9lFoGcJqH/oWb6SLgKdSiApIbRFZ6feQZVbBERABERABERABERABERABERABDqMgJQQHXbDVFwREAEREAEREAEREAEREAEREAER6FQCUkJ06p1TuUVABERABERABERABERABERABESgwwhICdFhN0zFFQEREAEREAEREAEREAEREAEREIFOJSAlRKfeOZVbBERABERABERABERABERABERABDqMgJQQHXbDVFwREAEREAEREAEREAEREAEREAER6FQCvkVnpxZe5RYBERABERABERABERABERABERABEegcArKE6Jx7pZKKgAiIgAiIgAiIgAiIgAiIgAiIQEcT+H9Kgxv8kYodqgAAAABJRU5ErkJggg==;" parent="1" vertex="1">
          <mxGeometry x="970" y="462.03" width="887" height="67.97" as="geometry" />
        </mxCell>
        <mxCell id="IcJFDWdwG0e-xd4-nDiQ-26" value="" style="shape=image;verticalLabelPosition=bottom;labelBackgroundColor=default;verticalAlign=top;aspect=fixed;imageAspect=0;image=data:image/png,iVBORw0KGgoAAAANSUhEUgAABCEAAABRCAYAAADsH7wsAAAAAXNSR0IArs4c6QAAAERlWElmTU0AKgAAAAgAAYdpAAQAAAABAAAAGgAAAAAAA6ABAAMAAAABAAEAAKACAAQAAAABAAAEIaADAAQAAAABAAAAUQAAAADkOrfJAAAqEUlEQVR4Ae2dBbgkxfW3a3F3d3fXRf64LR7cPbglwS0QgluAxUKQEIIT3C1IILi76+LuVt95T7b66zvb0zPXZu/c/tXz3Ds93WX99tTpqlOnTg0IIUT7UxABERABERABERABERABERABERABERCBXiUwErnHKD1Er1JW5m1HYMCAAWoXbffUVGEREIFWEpCcbCVtlSUC7UVA8qG9npdqKwKtIoBsIIzQqgJVjgiIgAiIgAiIgAiIgAiIgAiIgAiIQLUJSAlR7eevuxcBERABERABERABERABERABERCBlhGQEqJlqFWQCIiACIiACIiACIiACIiACIiACFSbgJQQ1X7+unsREAEREAEREAEREAEREAEREAERaBkBKSFahloFiYAIiIAIiIAIiIAIiIAIiIAIiEC1CUgJUe3nr7sXAREQAREQAREQAREQAREQAREQgZYRkBKiZahVkAiIgAiIgAiIgAiIgAiIgAiIgAhUm4CUENV+/rp7ERABERABERABERABERABERABEWgZASkhWoZaBYmACIiACIiACIiACIiACIiACIhAtQlICVHt56+7FwEREAEREAEREAEREAEREAEREIGWEZASomWoVZAIiIAIiIAIiIAIiIAIiIAIiIAIVJuAlBDVfv66exEQAREQAREQAREQAREQAREQARFoGQEpIVqGWgWJgAiIgAiIgAiIgAiIgAiIgAiIQLUJSAlR7eevuxcBERABERABERABERABERABERCBlhGQEqJlqFWQCIiACIiACIiACIiACIiACIiACFSbwEjVvv3/3f0HH3wQYoxhsskmayscX375ZRhnnHHaqs6qrAi0G4Gffvop/Pzzz4XVHmWUUcKII45YeK2Zk+RL/qOPPnoz0ZuO8+OPP7pMG3XUUZtOo4giIAIiIAIiIAIiIAIi0AoClbWE+Prrr8Pee+8d5p133jD55JP73zzzzBP22muv8NVXX7WCfafK+PDDD8M333yTpbnsssvCuOOOG84///zsnA5EQAR6nsAmm2wSxhhjjMK/8847r1sFIm/IG3nUk2H++ecPs846a6eyrJUxnUqsyCIgAn2CwO677x4OO+ywPlGXoko8/vjjYY011gjvvfde0WWdEwER6CECn3/+ebjgggvC5ptvHhZZZJHwhz/8Idx8880+QdFDRbQsm8GDB4c99tijZeWpoNYQqKwSYquttgrHH398mGCCCcJJJ50UTj755DDxxBOHE044IWy55ZZ9qpF+++23YdJJJw377bdf9quYa665woYbbuhKlOykDkRABHqcAFZShGOOOSaccsopHf6WWGKJHi+vJzJENmy66aZNZ1UkY5pOrIgiIAJ9hsDdd98d/vvf/7asPjvssEOgP9VsQNl5/fXXNz3Z09n8m62H4olAfyaANeSgQYPCdtttF95///2w5JJLhltvvdXPHXXUUU3f+g8//BBmnnnmcOmllzadplHEruSJ8vKuu+5qlLVf70r+TWWsSD1OoJLLMU488cRw5ZVXho022ihcfPHFGVRmENAYXnjhha6MYJaS8O677/rnlFNOGT766KPw6quvhoUXXrjQDPvpp58Ov/zyS5hzzjnDyCOP7On4991337nmf4oppgiYcL/wwgseJ0VgoPPkk0/6ixkFw/jjj++XGBxQHgGtJscTTTRRmH766cMRRxzhFhx+MffvueeeC7/++msgn3xIdcDyg9lX6oASZpJJJslH8+MXX3zR75v6zjbbbMNc1wkRqBqBHXfcse7yp7yMwKrh5ZdfDvPNN18YMGDAMJheeeUVt2rC8qo25PNpJGuw2EJmkE/tsiw6HsgAQqN2X0/GYGlFYNnXM88848fIlNqy/IL+iYAI9EkC77zzThh77LHdchK5xDt9zDHHzOqarhOH/gt9i3wbf+utt7w/wnUC8gLZNPXUU/vghjzp9L/55pthwgknDGONNVaWdzpg2dlTTz3lg5l0rvaTPgeyBhmTlqdhLVGWf1Ga2nz1XQSqSOD3v/+9KyNvvPFGVzwkBttvv304+OCDw6KLLhqWX355P12vjTP5Sbumz/Laa6/58bTTThtQcAwZMiQwJvr++++9jWJVPsII/5vX5hzL3Lk+0kj/G2Z+8sknPjYab7zxwhtvvDFMnql++U/GPMQt6isRj3o88cQTLt9mn312T8q5svyL0uTL1HHrCdj4t1rBGl+0QXg0jfwwN/7xxx9He4lGM13Kri2wwALRGkHcdtttow0qmBaN9rKNd955Zxbnuuuui1NNNZVf47q96OP999+fXb/22mv92j777BNt4B/tRZ9dM5Nuz490/FG3iy66yK9fcsklWZ7p+tFHHx1tJsHPm3Yyy+eWW27xclM883ERTdmSXU91MIuKOM0003h6U4hEm8XI4lgnIC611FIdylxmmWWiDXiyOFU4gKGCCEBg3XXX9fbwxRdf1AWSlxGmfPT4thyig4z47LPPoikmsrY144wzxnXWWce/p/aVz6eerDEfEl4ne7l7WvNJEVddddVoyoasfgsttFC0l7J/b9Tu68kYEptC1uVhkinIRlPcZuXooNoEJCf73vOnr7LKKqtkFbNOv8uLGWaYweWFKRfjaaed1uG6Tchk/Rf6BGYlml23gUU89thjs+/0TXjupiCIM800kx8n+XD66adn8dIB/SCbVPF4yKz111/fj20SxKM8+uij0QYrcbTRRotcN4vUaMpVv1Yv/7I0qVx9Dn8Ckg/D7xkwzlh77bWHqYAN7KMpFKMpI7Jr9dq4WU50aN88T1NAxttuu83P28RtRF5wnnZrikbPk3EH515//fWsjN/85jfRLEejWTQU5plFHHpwyCGHuDwgH8ZWjEvmnnvuLBrjIMZK3Atxll122WgKhtL866XJMtVBywjwzIb+VWuwZbOD0WYB4oILLlgXNgoIftxm0eBxGBgAa7HFFos0SpQPZo3gA3mb9Yw2e+lKBNLdcccd8YorrojTTTedX7cZAs8jDQTIxzSU2eAERYjNOnjjJB+bcXRFAgKEgMC47777vPwNNtggPvbYY648qVVCmObPlRtmgeF1+Pe//x3NWsPv9dlnnx2mDgcddFC85557sgEW5RKOO+44L+vII4/0ToatLfXvZ5xxhl+vyj+ek4IIQKBZJQS/GQb/5q8lXnXVVdGcQsb11lsvg7jxxhu7EtOWf8VHHnkkmmWFty3S5ZUQfK8na8jM1nV6uj/+8Y8uL1Kb3XrrrbOyipQQ5FvU7uvJGOQfL3iUJWZd5X82+xltdiQrRwfVJsBvSqFvEShSQjBQOOecc+Lbb78d11prLW/TqdYoKVB4olxkEuK3v/1tRJH60ksveZR6AxSUEMitlVZayQcIKFkZBOQD/S36QmZN6ZMyDz/8cDZRkpQQSy+9dKSPZbOn3rehP7TZZpt5NvXyL0uTL1/Hw5eA5MPw4W/WTd5HsCWkhRVgrDJw4MDsWr02zpiEds5zNAvySBunTSflBBMtZongYyD6CYw5CIyBSPN6TgmBQgQlBOmL8swqYwcPPPCAyyTzxxXNEiOeffbZnl9SQnB/yCjGJwQmSyjvmmuuqZt/WRrPRP9aSoDnxV/llmNgUoSDR9Ow2/0XB6499NBDbn6U4mFCdPXVV2dLF6zDH6zzH0wpEEwrHzA1shmCsNxyy3mmLJvYd999w+233x5sljIryAb3Yf/998++m/bfl4aw5AEzSf7WXHPNcOaZZ7qpIzt24GSOwLKJdJxlMPSAun366ae+bivV4a9//avHZ8nJ4YcfniWxWQ13ysmJVD5rrVhCYpYgHs+0ir7Ug7quuOKKbnqZZaADEaggAZtJzMwNuX3aDmaMKdBWTQmZmTJj6pjWMJp0D6aIdPPHPffc05NYxztgTpzipHzKZM3//d//hXPPPTfgi+LQQw/1JLRbU1SGf/zjH8GUhaHejhj12v2uu+6ayZW8jGFZCabXrAdFPrG0hPXmmFkqiIAItA8Blppus802XmEbDATrrPuSCvxgEXbaaSdfnsqxKSGCdfrDgw8+WLp8grgsvTAFhy/9Qm7VBlN6uGk0/rdMseqXWQ7LUtgUkJnIFhsIuV8u+h5pCWq9/MvSpHz1KQJVJcBSawJLJ4qCKQbdP0TRtfw52mVq1yzhSscpzllnnZX5pTOrTvezx/LPstAoT9LSn6HPhO8Ks9p2vxY41DTFqGfNMg/6JmmpB2WzSxlyo17+ZWnK6qtrvUugckoIfqAEfuD1QrqW4hIPPwp53wms9yawVio1eJvd9HWPnE+NxTSBfM2CaQuzYw5YZ7nCCit4PjfccIMrHliDRcjvhuEnSv6ZtYNfzTvKo468xNN67pQ8L5jwCUFAiULAazWdBOpklheBnQEYTOVZeET9E4GKEdhiiy1c8ZBum853PuDHJb+WmraV2hXrrmnPiy++eJaENsVax1olRJmsQX7YbIQrIbKM7ADlBAMLZBFrM4tCWbsvio/sWHnllQNrSs1yLNjspDu7tBmUoug6JwIi0EcJ5GVV8rfA2ugU8oMLm230Dj2+GLobULISULimkC+Lcyg18XyPPwoc6JEmre9OaWo/u5KmNg99F4H+SoDJTEKaVKy9T3y6pDi11zrzPfmNIg3jDcZOSYHYmXxq4yID8H2HAiKFfFmcs2VePvGC/wfkBr74+CsLXUlTlp+udZ9A5ZQQOF2ic43yoF7gGlo/Zj7rBfIhmFmRO2vhGGuEfMB5pS3ryJ8a5hjHK2buHWyJh1tnMCghz84GZhwoK3UwUnoacn62Np1Pn7XKBZQYtpTDNZo46GQLQupk/iYCM70KIlBVAlge5JUMjTjk21ZyOIn1RGdDXtbQzgm063xI32nr9ZQQ+fj5uuXP1x7jwBeLL7YCZnsvrLvYQYiZVQUREIH+RwAnkgwmmFnsbkgzlebHpjArM812xSyDByY/6GuY3ywfVBQmsJNdSVMvL50Xgf5IYJZZZvEJk+eff36Y26NtM8g3HwvDXOvOidTGe0pupPxSnfJ9Fnb/sSVZYfXVVw8HHnigW3xgsVkWupKmLD9d6xkCI/RMNu2TCz9kvC/TONGe1Qa2j2J3CeLkf/S18VLjZnYRbR2mhPfee68v42ApR/pj2UZZYKCPAoK9fJl5oNOPBUJnAzOkmCfZGsoOSZkxSEtKOlwo+cJs7b/+9S9XXmA6jldrlpEoiIAIdI1AskJIFkudySUva5IlVa3sSt8729Yb1QOlCZ60UczedNNNLuvYqztZeDRKr+siIAJ9n4A53c0qyRJTBvppVywmN1ialQI7WOQDg456JthpYMD2eikw8ZICfSYsPzG7NoeVwdaYd7A2I15t/s2kSfnrUwSqSIA2g8Uik4i11tgsoWCiky07Uyhr40mpUNTG87LA/L348gj6IGnyNW/NnY9blid1QomCTGL5fApYgKbA0lMmk5kcMcf53i/Jj9eK8m+UJuWtz9YSqJwSArzmIM5fmrvsssswtHfbbTc3myZOPjCY5y8FlAwEXtQoLHhpm8fYdNmXYzCDyAC+LLDOidkClj2kkGZN03dMKWlUZR1/6kAgvxRQbiA4MK9sNtCozXGeR8fywRzb+Fajyayy2XwUTwRE4P8TYIkFL038x6TA7B/bS9WGMlmDxQPbZiFrkDkpsGQCXxCp05/ON/tZJGMwc/zTn/7kdeYFbx73fQtj8kzLzZrNX/FEQAT6LgHbLcOXRKBoZOIB02eWeBGYMbUddNzfzcknn+zX83fCJAxLKfB5g1+qfGAdNtYNp5xyivuruvzyy8POO++cRUlLM5An9HvwHWGOfbPrHNTm30yaDhnoiwhUkAAKCCyjsRag/eFHBR9vWBoNGjTI/cAkLGVtnL4BYwEmSPETk5ark5YlqsiMU089Nfzzn//05ZvmMNKtmxjX0J4ply3DGY+kUJYncVgOTj5sJ4rS0Zxw+8RoSs/SV7YBZXKEiR2sybHgSqEo/0ZpUlp9tp6A/aaqF/BUb6h9K84jjjgishsE3mI5t+GGG3YAknbHsJdpNIeREe/29iN3T7Bsl2cvXvcAjed4G8T79pmkweOsrY/yvNLuGPktNbmw9957e5l4ebVGGs1BlH+nHtbAsnrY4MK3uaJsUwgMs0WnKSh820+2umL7LXazYEsuEx7uuZaMiupA/SjLTM29LFPMZPUx86XINjn561mF+vkB96wgAhBIu2OwGwVbPOX/0pZUtPe0JWaitvnmm3vbSd9NwenfrZPv3pzZVpPfGX+1u2PUkzXkhQwgDR7k2YnDXvD+nbaaQtHuGHnZU9vuSVcrY8y6IpryM5qCM1pHwz1izzHHHNE6Nh22A01l6rN6BCQn+94zt+VY0QYZWcXYHtNMlrPvyAGeG57vCTaoj2yfZ7OPfp7t8NjdJwXzWeO7V5gi0ncVO+CAAzzekCFDPAoe8JERXC/aRYvtNtm1izLJ25Z0+TH9GFOkRnOY6X0l+kvIROQt26inUJt/M2lSWn0OXwKSD8OXP9vjskMXu+3xLHjHmxLQd7nI16xRGzdLbd8RkDzYojPtjsEOX2z5y3nGT/QZUmBMZX70fIc+xlumDPHdMdL12jzT+fRpfmK8TOSCKURdLqTdMWzZaSZTkF+Mn5Bz7BSWQm3+zaRJafXZ+wT4zQz9q+Zgy8yEopkZe8Oho80fLz62sGPbzXxggEHnm311zTzZX5i2ZKGDkoB9q01759vyAdZmPn2AkPK57rrrHDiDhnyg0bJdDmlQbNB5SAN/M0XKorIvb9rnmz27zYnlMPnxsredMbwO5MU2VigSUiiqA2VQts14ejS262MLLxp+qhN7iHO+SoF7VxABCKR97flN1P797W9/c0hs+YuMyAebJfB2lM7Zcinft5utO9learXVVsuUjknmNCNryI9BhS3x8Pqg/GTbXzrnKbBVVqpPM+2edLUyhnNs24diM903ZbE9sIIIQEBysv1/B3TikwKTyYy8HMnfHX2m7oSyPgTyD/nYmdCVNJ3JX3G7T0DyofsMeyIHs7p05UGjvJpt40kJYRZQkbzNAWZh1kzS1m7bWxixzkmzbsgmaIqilMmrovic60qaennpfNcJpD4lW0WQi31UN6S1SvWczuEZHicpLK3AozR+FyaccMJCYCx/4C/tOlEYqeCkNQw31663vV5Bkrqn0tqtWieVdRMUXCAPTCsx/U7OpQqi9dtTmJ9XvV3024c7nG8M3y2EtG4yX53OyBrSsU4SM8PeDLQDvGljHtnbZfXmfSjvnicgOdnzTFudI20aR7M2m9jqolVePycg+dA/HzDLQVdaaSVfhpWWgvfPO9Vd9RYBZAOhcrtjFAGtp3woistao3oKCOIz8O/K4L8sz6J6lJ3rSvm1+ZEH6zkVREAEepZAkfKhqIRGsoY0rVAK8LLIb09cVFedEwERaE8CZn2ld317PjrVWgSGCwHGTLbk03cRHC4VUKH9hoCUEP3mUepGREAEREAEREAERKB5AjiOUxABERCBZgnY0vXAbhgKItBdAlqO0QTBd955x03zbT10E7EVpT8QkBlhf3iK7XcPkjXt98yqXGPJySo/fd27CJQTkHwo56OrIlBVAsgGgpQQVf0F6L5LCejlWYpHF0VABEQgSE7qRyACIlCPgORDPTI6LwLVJpCUECNUG4PuXgREQAREQAREQAREQAREQAREQAREoFUEpIRoFWmVIwIiIAIiIAIiIAIiIAIiIAIiIAIVJyAlRMV/ALp9ERABERABERABERABERABERABEWgVASkhWkVa5YiACIiACIiACIiACIiACIiACIhAxQlICVHxH4BuXwREQAREQAREQAREQAREQAREQARaRUBKiFaRVjkiIAIiIAIiIAIiIAIiIAIiIAIiUHECUkJU/Aeg2xcBERABERABERABERABERABERCBVhGQEqJVpFWOCIiACIiACIiACIiACIiACIiACFScgJQQFf8B6PZFQAREQAREQAREQAREQAREQAREoFUEpIRoFWmVIwIiIAIiIAIiIAIiIAIiIAIiIAIVJyAlRMV/ALp9ERABERABERABERABERABERABEWgVASkhWkVa5YiACIiACIiACIiACIiACIiACIhAxQlICVHxH4BuXwREQAREQAREQAREQAREQAREQARaRWCAFRRbVZjKEQEREAEREAEREAEREAEREAEREAERqC6Bkbj1GKWHqO5PQHdeRGDAgAFqF0VgdE4EREAEhhKQnNRPQQREoB4ByYd6ZHReBKpNANlA0HKMav8OdPciIAIiIAIiIAIiIAIiIAIiIAIi0DICUkK0DLUKEgEREAEREAEREAEREAEREAEREIFqE5ASotrPX3cvAiIgAiIgAiIgAiIgAiIgAiIgAi0jICVEy1CrIBEQAREQAREQAREQAREQAREQARGoNgEpIar9/HX3IiACIiACIiACIiACIiACIiACItAyAlJCtAy1ChIBERABERABERABERABERABERCBahOQEqLaz193LwIiIAIiIAIiIAIiIAIiIAIiIAItIzBSy0rqxwX99NNP4eeff87ucOSRRw4jjdQY7QcffBBijGGyySbL0hYdfP/99+G1114L00wzTRhrrLE8yi+//BJ+/PHHouh+btRRRw0jjCAdU11AuiACIiACIiACIiACIiACIiACItByAhql9gDyTTbZJIwxxhjZ35hjjhkGDhwYLrvssmFy//rrr8Pee+8d5p133jD55JP73zzzzBP22muv8NVXX3WI//7774flllvOFQ9zzjlnGGeccTzdk08+GU444YSsvHzZ6fiGG27okJe+iIAIdJ3A2WefHXbaaaeuZ9Ag5cYbbxwuvvjiBrFC2HLLLcOFF17YMF5nI/z6668BOXbRRRdlSZFH+++/f1hjjTXCf/7zn+y8DkRABPongSI50NfuFFnZGzKwr92n6iMCrSbQm22LCdc111wzXHvtta2+LZXXhwk0nq7vw5XvK1WjcRGSYuCpp54Kl156aaBBDxgwIKy//vpZVbfaaqtw5ZVXhmWWWSacdNJJfv2aa67xtFg7cI00hLXWWis89NBDYccddwxLL710ePTRR8PgwYPD4osvHm666abwl7/8xePdddddgTy22267MNdcc/m5ueee2z/1TwREoPsEaNsoBHsi7LDDDuGHH34I559/fpbdzTffHGaZZZbse9EBcuWCCy4IW2+9ddHlbp1j8PHee++FTz/9NMvn2GOPdbm06667hkknnTQ7rwMREIH+SaBIDvTmnRbJwkblIStnmGGGRtF0XQREoJMEerttXXfddWHZZZftZK0UvT8TkBKiB58uSgCsFQhbbLFFWGyxxcJ5552XKSFOPPFEVzJstNFGHWY9d99997D55pu7dp/BDlYRn3zySXj44Ydd4XDGGWd4nqT79ttvw+mnnx4+/PDDsMcee/h5lCAoIVBarL766n5O/0RABHqGwNNPPx1efPHFkNphypVzX375pSv+Rh999HQ6vPXWW2H88ccPY489tp+jzX700Udh6qmnDlg3vfzyy66EePPNN8OEE06YLbFKGXB9iimmCFhU5cMVV1wRJplkkrDAAgsE0k411VRhxBFH9Cgsz3rnnXfCxBNP7BZSnGSJGFZTxKtVIhAXWcXyrjfeeMM79cwupjq/++67Ln9mnHHGsNtuu/nSL+41yTfy515YdjbRRBPxVUEERKAXCKAcpI1OOeWUYdpppx2mhFdeecXbOkrM2iWYZWmLrtGe83IgXxiTJPQ1kAn5gCxBbow77rgu24pkVz5+Oqb8MllYr7yUPn0iW7/77jtfrprO1WPS1bqmfPUpAlUgQH+CvgPKvvHGG2+YW27UNhtdr82wXntN8er1tdSeE6H2/rT3ikJ3CKy77rqYQsQvvvgiy8ZmFKINCOIEE0yQnVt00UWjLZeIpkDIzqWDjz/+ONqAIC6yyCJ+6rPPPovWoYhLLbVUJK8UbDlHtAbboSyzqPDyTcuYoumzmwR4ngoiAIFDDjnE27IN6h2IWSRFGxDE0UYbLVqn3a/ZCzuDRbs1K4Lsuy1x8PZpne4400wz+TG/L/5Moejx7EUfbdlDnH766f28DfbjqaeemuXBweyzzx5t5jDeeuutHsdmLbLrt9xyi5+75557/JwtH4nkmcrZfvvtO8gRrm2wwQZed7Os8jTIqgMOOMCPbUCTpSUP6mNLQfwa/2BBfFNQZOd0UD0C/DYUeo/A7373u2iWkXGUUUbx9rjppptm7dgG8DHfTm1ZZzTlZFaZsrRl1/JygMxsQBFnnnnmTB4go5577rmsHGQJfSAbsHgcU0bE0047Lbte76CeLGymvCSnTEHs/aZ11lnHi2nEpKt1rXcPOl9OQPKhnE9fu0r7sCUT0fzUeVumf3P00Udn1WzUNsuuM47h92CTsVl+jdpro76W2nOGsu0O+C0M/VMnortPr0gJQWeAzsOCCy7o2dMAbWYz+15UJgoIlBSmhfTLtgTDH9IKK6wQr7/++miOKIuSRSkhCrF066Rent3C168SzzHHHJFBfAq0S7NGiOYw1hWKDNA322yzdNmVh/WUEOZnIa600kquXETRmNo0L1NzaBvPOeccH0igkKBTn8IzzzzjsuC2226L5gg3mgVFtGUS6bIf03FAdjz//POuIDGLqmjLK+JZZ53lac1HTRaf8syKwpUgZrnh5/ODj88//zyuvPLKcYkllog20+j3T5lJEWM+IjxPWwqW5amD6hGQnOy9Z/722297GzvwwAO9XTOwR0YkBcDCCy8cmdigI29Wk9GsJKIt/fQKlaUtu0bivBzg+/zzz+8KUCY/Xn/99bjQQgu5UgI5RECWoCRBdpG3WWRGs5bwa2X/6snCZspDCWHWoi4j55tvvsjkDKGMCde7WlfSKnSegORD55kNzxS0D57ZJZdc4m157bXX9omWF154wavVqG2WXS9SQjRqr436WmrPw/PX0r2y+Z0N/ZMSonsoo88CAPOBBx6Izz77bDR/ED7I4NxBBx3k2fMC5/uGG25YtzhzDOdx6FQQGKSglUSZQVozxY777rtvNBOkDnlICdEBR498gbeCCNCe+S1gfZACA/GkKOQcnW5bepUulyohiGRLpiKKxXzgZYrSIAU69JSbrKYOPfTQaMseMiXAtttuG6ebbroU3Y/NcaZ/N18x3nFAAZGCLcmItkQsffXOOLOh+VA7+ED2mB8Mj3L33Xd7fe68807/zsAIeZSUEvl8dFwdApKTvfesbfcsf/ebD5jIgD0fsKqC/bnnnpudpj3bsjD/Xpa27BqJ83IglWO+aLJyzOm1l41ilFAru2wJagfZlSUsOKiVhc2Wt88++8Tll1/eZVCy/khp6zHpbl0Lqq9TDQhIPjQA1Mcu05Z32WWXrFbmk87bMu0/ta96sqDR9VolRIpf1l4b9bW6I3uym9TBcCGAbOBPu2MYhZ4K+IBgFwtTNIT77rvPHUXa4MGzT84m7WnXLS5dS3Gtgbmvh1dffTWYSbiv9T7mmGOCzX74Wsq6GemCCIhAjxDADwN+G/LOlNha15SLvmuEafKDDcwDayi7G2w2Mcsi+ZhI2/BSD5uVyHxArLfeer5O3JQkwQYDfsw5Ausn7eXtO/TMOuusgT98yNgsZZY/B6mMDifrfFlyySV9TfpVV13lMW688cYO9amTTKdFQAS6SAD/L6bsC3//+9/d1ws+oR555BHPzWYm/ZPrqY3jtBbfCPiTKktbdq22qsgXAmWkMNtss/khcieFMtmV4jTz2Wx5xx13XLjjjjvcuS9blxMaMUnl91RdU376FIH+RADfLing4B6/U/hsaNQ2G11PeabPZtprM30ttedEtD0/5ZiyB5+bmTC5MzmcveE8Lu/EzdZRuhM4GnO9wDWc0dV6fibtYYcdFlBooIz485//HE455ZRga8brZaXzIiACPUAgDf5x2EYwbb47i0XpgKNZtte1WTl30tgDxRVmgVKBDv/xxx+fXbdZQHd+acu0vE44h2QHHQJ1Y6Bx5plnZvE5QKnZ1YDDO/MhEeCx3377hSeeeCLYWtGuZqd0IiACTRA4/PDDAztIsJMO7Znt7R5//HFv8yRHCWHLxTrklPod9dKiUCi7ls/Mln/4V+ReCknhmmRiOt8Tn82Wt+KKKwbzf+NMVlllFd9RLNWxjElP1FF5iEBVCDCZweQoiohGbbPR9Vpmjdrr8Ohr1dZR33ufgCwhepDxoEGDfHcKtt9MHYGUPdYNbJ9p67ULByzMVNpaT49D3HvvvTeYWZR7qM/ncfDBB7tH+sceeyyd1qcIiEAvEHjppZcCO2MkCwOKoF2yM8VRRx3lu97QoTcHlR1KN78uwdYoZ+fYVSIfeKEzY9lsuPzyy13hkN8ilBc+lhEoIfjLW0kgZ2wplytCseDgjx0y2LGjO4GZWKwpUIKi0Mhbh3QnX6UVAREYlgAWDQ8++GAwXy9ueWX+YFxusCU3FpcEJjxSG6fd21IKHyyUpS27VluLVA6e8lNAAUnoiW3Aa2Vhs+WZX4pgPjJcKYM8IqS09Zh4JP0TAREoJUDfIQXGGSgDsH5K7aueLGh0PeWZrDtT/HrttZm+VspTn+1LQEqIFj67jTfe2DsRKBdqA9vgffPNN4E4BF7ObMVpXu47RGWrLrST5q26w3l9EQER6FkCafCP1UEKyZoABQXbWGKdYA4f02X/tB1tAlZRmAuffPLJYc899+xwHfNhlBvMaprfhg7Xir4ka4w005DioBxh2df9998fzDluOu3LRFCEmDPNQD1RUvDCNz8TWZyuHJjjXLfSYqtS8xeRzYx0JS+lEQERKCfAhMXAgQNd4ckkBcoHgu0q4YoJ8yvjlpF01pnAwCIARSEzl2Vpy67V1ggLK6wOGOibX5xw++23B3MK6fWiHt0NtbKwM+Vts802biWChehNN93UkEl366r0IlAFArzfBw8eHGzHLe+7MKHKcsxGbbPRdSZXJ598cu/30P9BuVomw5rpa1XheVThHu2dpdAdAkW7Y9TLz5QM7oyDnTCOOOKIeOSRR0braPi5vNNKPE/bC9rPszUezmBwQImDOWvMvltGKkOOKROJnvu0ht9zmSmntiSAF/itttqqQ91tViBa59edT7IV56qrruqOafFSnwI7RrB7Bu2U3XHw5M7vaciQIR4FD/M2a+nX7YXv58xKIZoZccoiXnzxxZ4GZ7ekxRlcbfjhhx/cKRxp0y4bKY75bIh4jacObLPFFnbseJFCbXmcZ/eLfB1wuInzt3ywpRheH1Og5E/ruKIEJCd798HjiBpnk3AeddRR48477+y741AqTmvN+jK7blZZEUdyKZSlLbtWKwfYPjyVw7bEppRwJ3WpnFpZgmNu6mtK2hSl7meRLOxMechAZC91YJefRky6U9e6N6ELdQlIPtRF0ycv0D5wYJ22/p166qnjlVdemdW1UdtsdB2H2zi+XW211TzPsvbaTF9L7Tl7NG13gGzgb8BQIWEfCl0lwFppZk0xux577LFLs/n22299LTWmlbatlsfFtJDZBtZa4xMiBWY/zAu+z4BgJcG6bGYfbPu/YAOEFC2bbbWBSrBBUXZeB10ngNbWWnXXM1DKfk0gtccy5460dSwShmcwxYPXIe+8qTv1MU/94eqrr/YlZTYo6k5WStsPCEhO9v5DtAkJdzY58cQTZ45p86XaQDzwV7sElDhlacuu5fNPx5RB6Ey7t+19U/IOn8ijvAO8DheHfulKeSmfMiYpjj57n4DkQ+8z7q0SWJZhg/zC7Bu1zUbXazMta6/N9LVq89P3vk8A2UCQEmI4Pqu0Vryo85CvFoNh287G12HnlRT5ODruWQJ6efYsT+XW3gTYoce20grszmNbAQa80yuIgOSkfgP1COB7AjPuosAOXzjbVOjfBCQf+vfz1d2JQFcJSAnRVXJKVwkCenlW4jHrJpskwFpwnOKyJSmKiDILkCazVLR+QEBysh88RN2CCPQSAcmHXgKrbEWgzQlICdHmD1DV710Cenn2Ll/lLgIi0P4EJCfb/xnqDkSgtwhIPvQWWeUrAu1NICkhtDtGez9H1V4EREAEREAEREAEREAEREAEREAE2oaAlBBt86hUUREQAREQAREQAREQAREQAREQARFobwJSQrT381PtRUAEREAEREAEREAEREAEREAERKBtCEgJ0TaPShUVAREQAREQAREQAREQAREQAREQgfYmICVEez8/1V4EREAEREAEREAEREAEREAEREAE2oaAlBBt86hUUREQAREQAREQAREQAREQAREQARFobwIDrPqxvW9BtRcBERABERABERABERABERABERABEWgHArKEaIenpDqKgAiIgAiIgAiIgAiIgAiIgAiIQD8g8P8AEWixX3t/PVIAAAAASUVORK5CYII=;" parent="1" vertex="1">
          <mxGeometry x="130" y="0.7000000000000242" width="937" height="71.8" as="geometry" />
        </mxCell>
        <mxCell id="IcJFDWdwG0e-xd4-nDiQ-37" style="rounded=0;orthogonalLoop=1;jettySize=auto;html=1;exitX=1;exitY=0;exitDx=0;exitDy=0;entryX=0;entryY=1;entryDx=0;entryDy=0;" parent="1" source="IcJFDWdwG0e-xd4-nDiQ-28" target="IcJFDWdwG0e-xd4-nDiQ-2" edge="1">
          <mxGeometry relative="1" as="geometry" />
        </mxCell>
        <mxCell id="IcJFDWdwG0e-xd4-nDiQ-28" value="" style="rounded=1;whiteSpace=wrap;html=1;" parent="1" vertex="1">
          <mxGeometry x="-40" y="482.5" width="190" height="60" as="geometry" />
        </mxCell>
        <mxCell id="IcJFDWdwG0e-xd4-nDiQ-36" style="edgeStyle=orthogonalEdgeStyle;rounded=0;orthogonalLoop=1;jettySize=auto;html=1;exitX=1;exitY=0.5;exitDx=0;exitDy=0;entryX=0;entryY=0.5;entryDx=0;entryDy=0;" parent="1" source="IcJFDWdwG0e-xd4-nDiQ-29" target="IcJFDWdwG0e-xd4-nDiQ-30" edge="1">
          <mxGeometry relative="1" as="geometry" />
        </mxCell>
        <mxCell id="IcJFDWdwG0e-xd4-nDiQ-29" value="&lt;span style=&quot;font-size: 21px;&quot;&gt;2&lt;/span&gt;" style="ellipse;whiteSpace=wrap;html=1;aspect=fixed;" parent="1" vertex="1">
          <mxGeometry x="40" y="495" width="35" height="35" as="geometry" />
        </mxCell>
        <mxCell id="IcJFDWdwG0e-xd4-nDiQ-30" value="&lt;span style=&quot;font-size: 21px;&quot;&gt;3&lt;/span&gt;" style="ellipse;whiteSpace=wrap;html=1;aspect=fixed;" parent="1" vertex="1">
          <mxGeometry x="100" y="495" width="35" height="35" as="geometry" />
        </mxCell>
        <mxCell id="IcJFDWdwG0e-xd4-nDiQ-35" style="edgeStyle=orthogonalEdgeStyle;rounded=0;orthogonalLoop=1;jettySize=auto;html=1;exitX=1;exitY=0.5;exitDx=0;exitDy=0;" parent="1" source="IcJFDWdwG0e-xd4-nDiQ-31" target="IcJFDWdwG0e-xd4-nDiQ-29" edge="1">
          <mxGeometry relative="1" as="geometry" />
        </mxCell>
        <mxCell id="IcJFDWdwG0e-xd4-nDiQ-31" value="&lt;span style=&quot;font-size: 21px;&quot;&gt;1&lt;/span&gt;" style="ellipse;whiteSpace=wrap;html=1;aspect=fixed;" parent="1" vertex="1">
          <mxGeometry x="-22.5" y="495" width="35" height="35" as="geometry" />
        </mxCell>
        <mxCell id="IcJFDWdwG0e-xd4-nDiQ-38" value="&lt;font style=&quot;font-size: 21px;&quot;&gt;BE Orchestration&lt;/font&gt;" style="text;html=1;align=center;verticalAlign=middle;whiteSpace=wrap;rounded=0;" parent="1" vertex="1">
          <mxGeometry x="-145" y="555" width="400" height="30" as="geometry" />
        </mxCell>
        <mxCell id="h72swMApTZ3S8AkTD5hz-2" value="reCAPTCHA" style="rounded=1;whiteSpace=wrap;html=1;fontSize=20;verticalAlign=bottom;" vertex="1" parent="1">
          <mxGeometry x="970" y="170" width="176" height="170" as="geometry" />
        </mxCell>
        <mxCell id="h72swMApTZ3S8AkTD5hz-3" value="" style="shape=image;verticalLabelPosition=bottom;labelBackgroundColor=default;verticalAlign=top;aspect=fixed;imageAspect=0;image=https://www.google.com/recaptcha/about/images/reCAPTCHA-logo@2x.png;clipPath=inset(0% 7.58% 26% 2.65%);" vertex="1" parent="1">
          <mxGeometry x="993.9499999999998" y="180" width="128.11" height="120" as="geometry" />
        </mxCell>
      </root>
    </mxGraphModel>
  </diagram>
</mxfile>
